<svg>
    <!-- ALBUM -->
    <symbol id="album" viewBox="0 0 24 24" xmlns="http://www.w3.org/2000/svg">
        <path fill-rule="evenodd" clip-rule="evenodd" d="M6.5 7.5C7.05228 7.5 7.5 7.05228 7.5 6.5V3.5C7.5 2.94772 7.05228 2.5 6.5 2.5H3.5C2.94772 2.5 2.5 2.94772 2.5 3.5V6.5C2.5 7.05228 2.94772 7.5 3.5 7.5H6.5Z" stroke="none"/>
        <path fill-rule="evenodd" clip-rule="evenodd" d="M6.5 14.5C7.05228 14.5 7.5 14.0523 7.5 13.5V10.5C7.5 9.94772 7.05228 9.5 6.5 9.5H3.5C2.94772 9.5 2.5 9.94772 2.5 10.5V13.5C2.5 14.0523 2.94772 14.5 3.5 14.5H6.5Z" stroke="none"/>
        <path fill-rule="evenodd" clip-rule="evenodd" d="M6.5 21.5C7.05228 21.5 7.5 21.0523 7.5 20.5V17.5C7.5 16.9477 7.05228 16.5 6.5 16.5H3.5C2.94772 16.5 2.5 16.9477 2.5 17.5V20.5C2.5 21.0523 2.94772 21.5 3.5 21.5H6.5Z" stroke="none"/>
        <path fill-rule="evenodd" clip-rule="evenodd" d="M13.5 7.5C14.0523 7.5 14.5 7.05228 14.5 6.5V3.5C14.5 2.94772 14.0523 2.5 13.5 2.5H10.5C9.94772 2.5 9.5 2.94772 9.5 3.5V6.5C9.5 7.05228 9.94772 7.5 10.5 7.5H13.5Z" stroke="none"/>
        <path fill-rule="evenodd" clip-rule="evenodd" d="M20.5 7.5C21.0523 7.5 21.5 7.05228 21.5 6.5V3.5C21.5 2.94772 21.0523 2.5 20.5 2.5H17.5C16.9477 2.5 16.5 2.94772 16.5 3.5V6.5C16.5 7.05228 16.9477 7.5 17.5 7.5H20.5Z" stroke="none"/>
        <path fill-rule="evenodd" clip-rule="evenodd" d="M13.5 14.5C14.0523 14.5 14.5 14.0523 14.5 13.5V10.5C14.5 9.94772 14.0523 9.5 13.5 9.5H10.5C9.94772 9.5 9.5 9.94772 9.5 10.5V13.5C9.5 14.0523 9.94772 14.5 10.5 14.5H13.5Z" stroke="none"/>
        <path fill-rule="evenodd" clip-rule="evenodd" d="M20.5 14.5C21.0523 14.5 21.5 14.0523 21.5 13.5V10.5C21.5 9.94772 21.0523 9.5 20.5 9.5H17.5C16.9477 9.5 16.5 9.94772 16.5 10.5V13.5C16.5 14.0523 16.9477 14.5 17.5 14.5H20.5Z" stroke="none"/>
        <path fill-rule="evenodd" clip-rule="evenodd" d="M13.5 21.5C14.0523 21.5 14.5 21.0523 14.5 20.5V17.5C14.5 16.9477 14.0523 16.5 13.5 16.5H10.5C9.94772 16.5 9.5 16.9477 9.5 17.5V20.5C9.5 21.0523 9.94772 21.5 10.5 21.5H13.5Z" stroke="none"/>
        <path fill-rule="evenodd" clip-rule="evenodd" d="M20.5 21.5C21.0523 21.5 21.5 21.0523 21.5 20.5V17.5C21.5 16.9477 21.0523 16.5 20.5 16.5H17.5C16.9477 16.5 16.5 16.9477 16.5 17.5V20.5C16.5 21.0523 16.9477 21.5 17.5 21.5H20.5Z" stroke="none"/>
    </symbol>
    <!-- ARROW-RIGHT  -->
    <symbol id="arrow-right" viewBox="0 0 24 24" xmlns="http://www.w3.org/2000/svg">
        <path d="M6 11.5H18L12.5455 6M12.5455 17L15.9545 13.5625" fill="none" stroke-linecap="round" stroke-linejoin="round"/>
    </symbol>
    <!-- ARROW-RIGHT-UP  -->
    <symbol id="arrow-right-up" viewBox="0 0 16 16" fill="none" xmlns="http://www.w3.org/2000/svg">
        <path d="M5 3.5H12.5M12.5 3.5L3.5 12.5M12.5 3.5V11" fill="none" stroke-linecap="round" stroke-linejoin="round"/>
    </symbol>
    <!-- ATTACH -->
    <symbol id="attach" viewBox="0 0 24 24" fill="none" xmlns="http://www.w3.org/2000/svg">
        <path d="M20.7742 9.64935L11.2489 19.1746C9.49155 20.932 6.6423 20.932 4.88496 19.1746V19.1746C3.12767 17.4172 3.12767 14.5681 4.88496 12.8107L14.4308 3.26464C15.6024 2.09303 17.5019 2.09302 18.6735 3.26461V3.26461C19.845 4.43617 19.845 6.33563 18.6735 7.5072L9.12777 17.0533C8.542 17.6391 7.59224 17.6392 7.00646 17.0534V17.0534C6.42068 16.4676 6.42068 15.5178 7.00646 14.9321L16.5317 5.40684" fill="none" stroke-linecap="round"/>
    </symbol>

    <!-- AUTHORITY -->
    <symbol id="authority" viewBox="0 0 24 24" xmlns="http://www.w3.org/2000/svg">
        <path d="M8.0194 6.65623C8.53845 6.98955 8.64647 6.79114 8.89461 6.57863C10.486 5.21571 12.1066 6.2638 11.9945 7.82291C11.984 7.96974 11.8254 8.04593 11.687 7.99567C11.6766 7.99189 11.6663 7.98823 11.656 7.98468C10.8911 7.72051 10.5153 8.10352 10.0072 8.35526C9.95838 11.1167 7.65274 11.1338 6.7772 10.6378C6.84277 11.7632 6.05326 12.0846 5.62567 12.25C3.97641 12.1053 2.6133 10.0487 3.51937 9.20124C4.6087 9.41827 5.30438 9.33559 5.71839 8.90153C3.81881 8.90153 2.18598 7.03778 2.21824 3.79021C2.22304 3.30773 2.4206 3.0074 2.80272 3.24628C2.82602 3.26085 2.84603 3.27759 2.8661 3.29637C3.09546 3.51099 4.70395 4.96159 8.0194 6.65623Z" fill="#A2B2CA"/>
        <path d="M8.89461 5.85639L8.64561 6.04276C8.50153 6.12754 8.34514 6.25195 8.05988 6.11123L6.432 5.24404C6.56435 4.65496 6.89935 3.73986 7.5153 3.17605C7.82581 2.89182 8.12614 2.93839 8.20758 3.41372L8.89461 5.85639Z" fill="#A2B2CA"/>
        <path d="M15.9806 6.65623C15.4615 6.98955 15.3535 6.79114 15.1054 6.57863C13.514 5.21571 11.8934 6.2638 12.0055 7.82291C12.016 7.96974 12.1746 8.04593 12.313 7.99567C12.3234 7.99189 12.3337 7.98823 12.344 7.98468C13.1089 7.72051 13.4847 8.10352 13.9928 8.35526C14.0416 11.1167 16.3473 11.1338 17.2228 10.6378C17.1572 11.7632 17.9467 12.0846 18.3743 12.25C20.0236 12.1053 21.3867 10.0487 20.4806 9.20124C19.3913 9.41827 18.6956 9.33559 18.2816 8.90153C20.1812 8.90153 21.814 7.03778 21.7818 3.79021C21.777 3.30773 21.5794 3.0074 21.1973 3.24628C21.174 3.26085 21.154 3.27759 21.1339 3.29637C20.9045 3.51099 19.296 4.96159 15.9806 6.65623Z" fill="#A2B2CA"/>
        <path d="M15.1054 5.85639L15.3544 6.04276C15.4985 6.12754 15.6549 6.25195 15.9401 6.11123L17.568 5.24404C17.4357 4.65496 17.1007 3.73986 16.4847 3.17605C16.1742 2.89182 15.8739 2.93839 15.7924 3.41372L15.1054 5.85639Z" fill="#A2B2CA"/>
        <path d="M8 18C8 18.2626 7.94827 18.5227 7.84776 18.7654C7.74725 19.008 7.59993 19.2285 7.41421 19.4142C7.2285 19.5999 7.00802 19.7473 6.76537 19.8478C6.52272 19.9483 6.26264 20 6 20C5.73736 20 5.47728 19.9483 5.23463 19.8478C4.99198 19.7472 4.7715 19.5999 4.58579 19.4142C4.40007 19.2285 4.25275 19.008 4.15224 18.7654C4.05173 18.5227 4 18.2626 4 18H8Z" fill="#A2B2CA"/>
        <path d="M20 18C20 18.2626 19.9483 18.5227 19.8478 18.7654C19.7472 19.008 19.5999 19.2285 19.4142 19.4142C19.2285 19.5999 19.008 19.7473 18.7654 19.8478C18.5227 19.9483 18.2626 20 18 20C17.7374 20 17.4773 19.9483 17.2346 19.8478C16.992 19.7472 16.7715 19.5999 16.5858 19.4142C16.4001 19.2285 16.2528 19.008 16.1522 18.7654C16.0517 18.5227 16 18.2626 16 18H20Z" fill="#A2B2CA"/>
        <path d="M6 15L4 18L6 16L8 18L6 15Z" fill="#A2B2CA"/>
        <path d="M12 14H11.5H6L5 15H6H11.5L11.0714 21L11 22H12V14Z" fill="#A2B2CA"/>
        <path d="M18 15L20 18L18 16L16 18L18 15Z" fill="#A2B2CA"/>
        <path d="M12 14H12.5H18L19 15H18H12.5L12.9286 21L13 22H12V14Z" fill="#A2B2CA"/>
        <path d="M11 22L11.0714 21L10 22H11Z" fill="#A2B2CA"/>
        <path d="M12.9286 21L13 22H14L12.9286 21Z" fill="#A2B2CA"/>
        <path d="M11.5 14H12H12.5L12 13L11.5 14Z" fill="#A2B2CA"/>
    </symbol>
    <!-- CALENDAR -->
    <symbol id="calendar" viewBox="0 0 24 24" fill="none" xmlns="http://www.w3.org/2000/svg">
        <path d="M16.5 2.5V8.5M2.5 11.5V7.5C2.5 5.866 3.866 4.5 5.5 4.5H18.5C20.134 4.5 21.5 5.866 21.5 7.5V11.5M2.5 11.5V18.5C2.5 20.134 3.866 21.5 5.5 21.5H18.5C20.134 21.5 21.5 20.134 21.5 18.5V11.5M2.5 11.5H21.5M7.50002 2.5V8.5" stroke="#333333" stroke-linecap="round"/>
    </symbol>

    <!-- CLOSE -->
    <symbol id="close" viewBox="0 0 24 24" xmlns="http://www.w3.org/2000/svg">
        <path d="M13.0548 11.646L12.7001 12L13.0548 12.354L17.3548 16.644L17.3559 16.645C17.4028 16.6915 17.4399 16.7468 17.4653 16.8077C17.4907 16.8686 17.5038 16.934 17.5038 17C17.5038 17.066 17.4907 17.1314 17.4653 17.1923C17.4399 17.2532 17.4028 17.3085 17.3559 17.355L17.353 17.3579C17.3065 17.4048 17.2512 17.442 17.1903 17.4673C17.1293 17.4927 17.064 17.5058 16.998 17.5058C16.932 17.5058 16.8666 17.4927 16.8057 17.4673C16.7448 17.442 16.6895 17.4048 16.643 17.3579L16.642 17.3569L12.352 13.0569L11.998 12.7021L11.644 13.0569L7.35402 17.3569L7.35299 17.3579C7.3065 17.4048 7.2512 17.442 7.19027 17.4673C7.12935 17.4927 7.06399 17.5058 6.99799 17.5058C6.93198 17.5058 6.86663 17.4927 6.8057 17.4673C6.74477 17.442 6.68947 17.4048 6.64299 17.3579L6.64009 17.355C6.59322 17.3085 6.55603 17.2532 6.53064 17.1923C6.50526 17.1314 6.49219 17.066 6.49219 17C6.49219 16.934 6.50526 16.8686 6.53064 16.8077C6.55603 16.7468 6.59322 16.6915 6.64009 16.645L6.64113 16.644L10.9411 12.354L11.2959 12L10.9411 11.646L6.64154 7.35645C6.64148 7.35639 6.64142 7.35633 6.64137 7.35628C6.54694 7.26176 6.49389 7.13361 6.49389 7C6.49389 6.86631 6.547 6.73809 6.64154 6.64356C6.73607 6.54902 6.86429 6.49591 6.99799 6.49591C7.1316 6.49591 7.25974 6.54896 7.35426 6.64338C7.35432 6.64344 7.35438 6.6435 7.35443 6.64356L11.644 10.9431L11.998 11.2979L12.352 10.9431L16.6415 6.64356C16.6416 6.64353 16.6416 6.64351 16.6416 6.64348C16.7361 6.54899 16.8643 6.49591 16.998 6.49591C17.1317 6.49591 17.2599 6.54902 17.3544 6.64356C17.449 6.73809 17.5021 6.86631 17.5021 7C17.5021 7.13365 17.449 7.26183 17.3545 7.35635C17.3545 7.35639 17.3545 7.35642 17.3544 7.35645L13.0548 11.646Z" fill="none"/>
    </symbol>

    <!-- COMMIT -->
    <symbol id="commit" viewBox="0 0 24 24" xmlns="http://www.w3.org/2000/svg">
        <path d="M18.71 7.20986C18.617 7.11613 18.5064 7.04174 18.3846 6.99097C18.2627 6.9402 18.132 6.91406 18 6.91406C17.868 6.91406 17.7373 6.9402 17.6154 6.99097C17.4936 7.04174 17.383 7.11613 17.29 7.20986L9.84001 14.6699L6.71001 11.5299C6.61349 11.4366 6.49955 11.3633 6.37469 11.3141C6.24984 11.2649 6.11651 11.2408 5.98233 11.2431C5.84815 11.2454 5.71574 11.2741 5.59266 11.3276C5.46959 11.3811 5.35825 11.4583 5.26501 11.5549C5.17177 11.6514 5.09846 11.7653 5.04925 11.8902C5.00005 12.015 4.97592 12.1484 4.97824 12.2825C4.98056 12.4167 5.00929 12.5491 5.06278 12.6722C5.11628 12.7953 5.19349 12.9066 5.29001 12.9999L9.13001 16.8399C9.22297 16.9336 9.33358 17.008 9.45543 17.0588C9.57729 17.1095 9.708 17.1357 9.84001 17.1357C9.97202 17.1357 10.1027 17.1095 10.2246 17.0588C10.3464 17.008 10.457 16.9336 10.55 16.8399L18.71 8.67986C18.8115 8.58622 18.8925 8.47257 18.9479 8.34607C19.0033 8.21957 19.0319 8.08296 19.0319 7.94486C19.0319 7.80676 19.0033 7.67015 18.9479 7.54365C18.8925 7.41715 18.8115 7.3035 18.71 7.20986Z" stroke="none"/>
    </symbol>

    <!-- DIR -->
    <symbol id="dir" viewBox="0 0 24 24" fill="none" xmlns="http://www.w3.org/2000/svg">
        <path d="M12.5 5.5L12.0858 5.08579C11.7107 4.71071 11.202 4.5 10.6716 4.5H4.5C3.39543 4.5 2.5 5.39543 2.5 6.5V17.5C2.5 18.6046 3.39543 19.5 4.5 19.5H19.5C20.6046 19.5 21.5 18.6046 21.5 17.5V9.5C21.5 8.39543 20.6046 7.5 19.5 7.5V7.5M12.5 5.5L13.9142 6.91421C14.2893 7.28929 14.798 7.5 15.3284 7.5H19.5M12.5 5.5H17.5C18.6046 5.5 19.5 6.39543 19.5 7.5V7.5" fill="none" stroke-linejoin="round"/>
        <path d="M14 15.5C14 15.2239 14.2239 15 14.5 15H17.5C17.7761 15 18 15.2239 18 15.5C18 15.7761 17.7761 16 17.5 16H14.5C14.2239 16 14 15.7761 14 15.5Z" stroke="none"/>
    </symbol>
    <!-- DOWN -->
    <symbol id="down" viewBox="0 0 24 24" xmlns="http://www.w3.org/2000/svg">
        <path d="M7.35355 9.64645C7.15829 9.45118 6.84171 9.45118 6.64645 9.64645C6.45118 9.84171 6.45118 10.1583 6.64645 10.3536L7.35355 9.64645ZM12 15L11.6464 15.3536C11.8417 15.5488 12.1583 15.5488 12.3536 15.3536L12 15ZM17.3536 10.3536C17.5488 10.1583 17.5488 9.84171 17.3536 9.64645C17.1583 9.45118 16.8417 9.45118 16.6464 9.64645L17.3536 10.3536ZM6.64645 10.3536L11.6464 15.3536L12.3536 14.6464L7.35355 9.64645L6.64645 10.3536ZM12.3536 15.3536L17.3536 10.3536L16.6464 9.64645L11.6464 14.6464L12.3536 15.3536Z" stroke="none"/>
    </symbol>
    <!-- FILE -->
    <symbol id="file" viewBox="0 0 24 24" xmlns="http://www.w3.org/2000/svg">
        <path d="M10.5 9.5H7.5M7.5 12.5H16.5M13.5 2.5H5.5C4.94772 2.5 4.5 2.9442 4.5 3.49649C4.5 9.09476 4.5 17.6222 4.5 20.5068C4.5 21.059 4.94772 21.5 5.5 21.5H18.5C19.0523 21.5 19.5 21.0523 19.5 20.5V9.5M13.5 2.5L19.5 9.5M13.5 2.5V9.5H19.5M7.5 15.5H16.5" fill="none" stroke-linecap="round" stroke-linejoin="round"/>
    </symbol>

    <!-- RIGHT -->
    <symbol id="right" viewBox="0 0 24 24" xmlns="http://www.w3.org/2000/svg">
        <path d="M9.14645 16.6464C8.95118 16.8417 8.95118 17.1583 9.14645 17.3536C9.34171 17.5488 9.65829 17.5488 9.85355 17.3536L9.14645 16.6464ZM14.5 12L14.8536 12.3536C15.0488 12.1583 15.0488 11.8417 14.8536 11.6464L14.5 12ZM9.85355 6.64645C9.65829 6.45118 9.34171 6.45118 9.14645 6.64645C8.95118 6.84171 8.95118 7.15829 9.14645 7.35355L9.85355 6.64645ZM9.85355 17.3536L14.8536 12.3536L14.1464 11.6464L9.14645 16.6464L9.85355 17.3536ZM14.8536 11.6464L9.85355 6.64645L9.14645 7.35355L14.1464 12.3536L14.8536 11.6464Z" stroke="none"/>
    </symbol>
    <!-- LEFT -->
    <symbol id="left" viewBox="0 0 24 24" xmlns="http://www.w3.org/2000/svg">
        <path d="M14.8536 7.35355C15.0488 7.15829 15.0488 6.84171 14.8536 6.64645C14.6583 6.45118 14.3417 6.45118 14.1464 6.64645L14.8536 7.35355ZM9.5 12L9.14645 11.6464C8.95118 11.8417 8.95118 12.1583 9.14645 12.3536L9.5 12ZM14.1464 17.3536C14.3417 17.5488 14.6583 17.5488 14.8536 17.3536C15.0488 17.1583 15.0488 16.8417 14.8536 16.6464L14.1464 17.3536ZM14.1464 6.64645L9.14645 11.6464L9.85355 12.3536L14.8536 7.35355L14.1464 6.64645ZM9.14645 12.3536L14.1464 17.3536L14.8536 16.6464L9.85355 11.6464L9.14645 12.3536Z" stroke="none"/>
    </symbol>
    <!-- UP -->
    <symbol id="up" viewBox="0 0 24 24" xmlns="http://www.w3.org/2000/svg">
        <path d="M7.35355 14.3536C7.15829 14.5488 6.84171 14.5488 6.64645 14.3536C6.45118 14.1583 6.45118 13.8417 6.64645 13.6464L7.35355 14.3536ZM12 9L11.6464 8.64645C11.8417 8.45118 12.1583 8.45118 12.3536 8.64645L12 9ZM17.3536 13.6464C17.5488 13.8417 17.5488 14.1583 17.3536 14.3536C17.1583 14.5488 16.8417 14.5488 16.6464 14.3536L17.3536 13.6464ZM6.64645 13.6464L11.6464 8.64645L12.3536 9.35355L7.35355 14.3536L6.64645 13.6464ZM12.3536 8.64645L17.3536 13.6464L16.6464 14.3536L11.6464 9.35355L12.3536 8.64645Z" stroke="none"/>
    </symbol>
    <!-- LINK -->
    <symbol id="link" viewBox="0 0 24 24" xmlns="http://www.w3.org/2000/svg">
        <path d="M7.5 7.5H16.5M16.5 7.5V16.5M16.5 7.5L2.5 21.5H19.5C20.6046 21.5 21.5 20.6046 21.5 19.5V4.5C21.5 3.39543 20.6046 2.5 19.5 2.5H4.5C3.39543 2.5 2.5 3.39543 2.5 4.5V12.5" fill="none" stroke-linecap="round" stroke-linejoin="round"/>
    </symbol>
    <!-- LOCATION -->
    <symbol id="location" viewBox="0 0 24 24" xmlns="http://www.w3.org/2000/svg">
        <path fill-rule="evenodd" clip-rule="evenodd" d="M12 23.3276L12.6577 22.7533C18.1887 17.9237 21 13.7068 21 10C21 4.75066 16.9029 1 12 1C7.09705 1 3 4.75066 3 10C3 13.7068 5.81131 17.9237 11.3423 22.7533L12 23.3276ZM12 22C6.63613 17.2106 4 13.1521 4 9.92599C4 5.27978 7.61613 2 12 2C16.3839 2 20 5.27978 20 9.92599C20 13.1521 17.3639 17.2106 12 22ZM12 5C14.7614 5 17 7.23858 17 10C17 12.7614 14.7614 15 12 15C9.23858 15 7 12.7614 7 10C7 7.23858 9.23858 5 12 5ZM8 10C8 7.79086 9.79086 6 12 6C14.2091 6 16 7.79086 16 10C16 12.2091 14.2091 14 12 14C9.79086 14 8 12.2091 8 10Z" stroke="none"/>
    </symbol>

    <!-- MAIL -->
    <symbol id="mail" viewBox="0 0 24 24" xmlns="http://www.w3.org/2000/svg">
        <path d="M17.6249 6.375H18.1249C18.1249 6.09886 17.901 5.875 17.6249 5.875V6.375ZM15.3748 6.375V5.875C15.0987 5.875 14.8748 6.09886 14.8748 6.375H15.3748ZM11.9998 3V2.5H11.9997L11.9998 3ZM3.44244 9.21479L3.91789 9.36953L3.44244 9.21479ZM6.70286 19.2755L6.99718 18.8713L6.70286 19.2755ZM16.5695 20.3298C16.8116 20.1969 16.9001 19.893 16.7673 19.6509C16.6344 19.4088 16.3304 19.3203 16.0884 19.4532L16.5695 20.3298ZM16.2443 16.4159C16.4433 16.2245 16.4496 15.908 16.2582 15.7089C16.0668 15.5099 15.7503 15.5036 15.5512 15.695L16.2443 16.4159ZM15.3748 7.49959L15.0745 7.89938C15.226 8.01315 15.4288 8.03155 15.5982 7.94688C15.7677 7.86222 15.8748 7.68904 15.8748 7.49959H15.3748ZM17.6249 5.875H15.3748V6.875H17.6249V5.875ZM18.1249 12V6.375H17.1249V12H18.1249ZM18.7499 14.875C18.5701 14.875 18.4995 14.8444 18.4676 14.8231C18.4407 14.8051 18.3811 14.7537 18.3193 14.5702C18.183 14.166 18.1249 13.4089 18.1249 12H17.1249C17.1249 13.3709 17.1733 14.3013 17.3716 14.8896C17.4771 15.2025 17.6418 15.4736 17.9113 15.654C18.1758 15.8312 18.4738 15.875 18.7499 15.875V14.875ZM20.5 12C20.5 13.3188 20.3019 14.0218 20.0243 14.3941C19.7797 14.7224 19.4076 14.875 18.7499 14.875V15.875C19.5597 15.875 20.3126 15.6807 20.8261 14.9917C21.3068 14.3468 21.5 13.3622 21.5 12H20.5ZM11.9998 3.5C14.9287 3.5 17.0293 4.24186 18.4012 5.62116C19.7736 7.00095 20.5 9.10221 20.5 12H21.5C21.5 8.94727 20.734 6.54853 19.1102 4.91595C17.4859 3.28288 15.0864 2.5 11.9998 2.5V3.5ZM3.91789 9.36953C5.05694 5.86967 8.31917 3.50046 11.9999 3.5L11.9997 2.5C7.88607 2.50052 4.24005 5.14843 2.96699 9.06005L3.91789 9.36953ZM6.99718 18.8713C4.02177 16.7047 2.77884 12.8694 3.91789 9.36953L2.96699 9.06005C1.69392 12.9717 3.08309 17.2582 6.40854 19.6797L6.99718 18.8713ZM16.0884 19.4532C13.2305 21.0219 9.68325 20.8272 6.99718 18.8713L6.40854 19.6797C9.41084 21.8658 13.3752 22.0832 16.5695 20.3298L16.0884 19.4532ZM11.9997 18.125C13.6473 18.125 15.1438 17.4738 16.2443 16.4159L15.5512 15.695C14.6296 16.5811 13.3787 17.125 11.9997 17.125V18.125ZM5.87446 12C5.87446 15.3828 8.61683 18.125 11.9997 18.125V17.125C9.16908 17.125 6.87446 14.8304 6.87446 12H5.87446ZM11.9997 5.875C8.61683 5.875 5.87446 8.61724 5.87446 12H6.87446C6.87446 9.16956 9.16908 6.875 11.9997 6.875V5.875ZM15.6751 7.0998C14.6513 6.33085 13.378 5.875 11.9997 5.875V6.875C13.154 6.875 14.218 7.25603 15.0745 7.89938L15.6751 7.0998ZM14.8748 6.375V7.49959H15.8748V6.375H14.8748Z" stroke="none"/>
        <circle cx="12" cy="12" r="2.5" fill="none"/>
    </symbol>
    <!-- OD -->
    <symbol id="od" viewBox="0 0 24 24" xmlns="http://www.w3.org/2000/svg">
        <path fill-rule="evenodd" clip-rule="evenodd" d="M11.6871 12.305C14.4888 12.305 16.7663 10.1063 16.7663 7.40323C16.7663 4.69933 14.4888 2.5 11.6871 2.5C8.88593 2.5 6.60782 4.69933 6.60782 7.40323C6.60782 10.1063 8.88593 12.305 11.6871 12.305ZM11.6871 5.37349C12.8468 5.37349 13.7901 6.28379 13.7901 7.40326C13.7901 8.52184 12.8468 9.43273 11.6871 9.43273C10.5283 9.43273 9.58402 8.52184 9.58402 7.40326C9.58402 6.28379 10.5283 5.37349 11.6871 5.37349ZM16.7046 15.1279C15.7861 15.6847 14.789 16.0796 13.7551 16.3069L16.5945 19.0481C17.1762 19.6084 17.1762 20.5184 16.5945 21.0793C16.0135 21.6402 15.0716 21.6402 14.4912 21.0793L11.6995 18.3857L8.91017 21.0793C8.61933 21.3595 8.23822 21.4997 7.85712 21.4997C7.47662 21.4997 7.09613 21.3595 6.80529 21.0793C6.22421 20.5184 6.22421 19.609 6.80468 19.0481L9.64442 16.3069C8.61051 16.0796 7.61338 15.6841 6.69497 15.1279C5.99992 14.7049 5.79114 13.8186 6.22907 13.1471C6.66579 12.4748 7.58421 12.2723 8.28047 12.6954C10.3598 13.958 13.0385 13.9583 15.1191 12.6954C15.8153 12.2723 16.7334 12.4748 17.1711 13.1471C17.609 13.8181 17.3996 14.7049 16.7046 15.1279Z" stroke="none"/>
    </symbol>
    <!-- PHONE -->
    <symbol id="phone" viewBox="0 0 24 24" xmlns="http://www.w3.org/2000/svg">
        <path d="M11.4426 6.37689C13.1941 6.21703 14.8745 6.71851 16.078 7.92201C17.2815 9.12551 17.783 10.8059 17.6231 12.5574M9.89752 3.28666C12.8247 2.519 16.085 3.29367 18.3957 5.60434C20.7063 7.915 21.481 11.1753 20.7133 14.1025M7.95528 4.43465L8.73869 5.21806C9.59203 6.0714 9.59203 7.45495 8.73869 8.30829L7.67104 9.37594C7.37841 9.66856 7.27698 10.1007 7.44456 10.4791C7.8081 11.2999 8.58538 12.7903 9.89752 14.1025C11.2097 15.4146 12.7001 16.1919 13.5209 16.5554C13.8993 16.723 14.3314 16.6216 14.6241 16.329L15.6917 15.2613C16.5451 14.408 17.9286 14.408 18.7819 15.2613L19.5654 16.0447C20.4127 16.8921 20.4127 18.2659 19.5654 19.1133C17.3266 21.352 13.7912 21.6669 11.3188 19.6892C10.0057 18.6388 8.63533 17.4756 7.57985 16.4201C6.52437 15.3647 5.36122 13.9943 4.31083 12.6812C2.33307 10.2088 2.64798 6.67342 4.88675 4.43465C5.7341 3.5873 7.10793 3.5873 7.95528 4.43465Z" fill="none" stroke-linecap="round"/>
    </symbol>
    <!-- PHOTO -->
    <symbol id="photo" viewBox="0 0 24 24" xmlns="http://www.w3.org/2000/svg" >
        <path d="M8 13L8.3641 12.6573C8.17715 12.4587 7.8655 12.4465 7.66366 12.63L8 13ZM18 10L18.3254 9.62037C18.127 9.45034 17.8312 9.4617 17.6464 9.64645L18 10ZM20.5 2H3.5V3H20.5V2ZM2 3.5V18H3V3.5H2ZM2 18V20.5H3V18H2ZM2.83634 18.37L8.33634 13.37L7.66366 12.63L2.16366 17.63L2.83634 18.37ZM3.5 22H16V21H3.5V22ZM16 22H20.5V21H16V22ZM7.6359 13.3427L15.6359 21.8427L16.3641 21.1573L8.3641 12.6573L7.6359 13.3427ZM22 20.5V13H21V20.5H22ZM22 13V3.5H21V13H22ZM17.6746 10.3796L21.1746 13.3796L21.8254 12.6204L18.3254 9.62037L17.6746 10.3796ZM11.7475 16.9596L18.3536 10.3536L17.6464 9.64645L11.0404 16.2525L11.7475 16.9596ZM20.5 3C20.7761 3 21 3.22386 21 3.5H22C22 2.67157 21.3284 2 20.5 2V3ZM20.5 22C21.3284 22 22 21.3284 22 20.5H21C21 20.7761 20.7761 21 20.5 21V22ZM2 20.5C2 21.3284 2.67157 22 3.5 22V21C3.22386 21 3 20.7761 3 20.5H2ZM3.5 2C2.67157 2 2 2.67157 2 3.5H3C3 3.22386 3.22386 3 3.5 3V2Z" stroke="none"/>
        <path fill-rule="evenodd" clip-rule="evenodd" d="M11.5 5.5C10.3954 5.5 9.5 6.39543 9.5 7.5C9.5 8.60457 10.3954 9.5 11.5 9.5C12.6046 9.5 13.5 8.60457 13.5 7.5C13.5 6.39543 12.6046 5.5 11.5 5.5Z" fill="none"/>
    </symbol>

    <!-- PRINT -->
    <symbol id="print" viewBox="0 0 24 24" xmlns="http://www.w3.org/2000/svg">
        <path d="M6.5 7.5H3.5C2.94772 7.5 2.5 7.94772 2.5 8.5V18C2.5 18.5523 2.94772 19 3.5 19H6.5M6.5 7.5V3.5C6.5 2.94772 6.94772 2.5 7.5 2.5H16.5C17.0523 2.5 17.5 2.94772 17.5 3.5V7.5M6.5 7.5H17.5M17.5 7.5H20.5C21.0523 7.5 21.5 7.94772 21.5 8.5V18C21.5 18.5523 21.0523 19 20.5 19H17.5M17.5 19V20.5C17.5 21.0523 17.0523 21.5 16.5 21.5H7.5C6.94771 21.5 6.5 21.0523 6.5 20.5V19M17.5 19V17.5C17.5 16.9477 17.0523 16.5 16.5 16.5H7.5C6.94772 16.5 6.5 16.9477 6.5 17.5V19" fill="none"/>
        <circle cx="18" cy="11" r="1.5" fill="none"/>
    </symbol>
    <!-- RESIZE -->
    <symbol id="resize" viewBox="0 0 20 20" xmlns="http://www.w3.org/2000/svg">
        <path d="M9.46154 15L14.0769 10.3846M3 15L15 3" fill="none" stroke-width="2" stroke-linecap="round" stroke-linejoin="round"/>
    </symbol>
    <!-- SEND -->
    <symbol id="send" viewBox="0 0 24 24" xmlns="http://www.w3.org/2000/svg">
        <path d="M21.3796 10.9964L3.62412 2.11991C2.87794 1.74687 2 2.28939 2 3.12352L2 9.62012C2 10.2398 2.88021 11.1201 3.5 11.1201L11.9999 11.1199C12 11.1199 11.9999 11.1199 12 11.1199C12.0025 11.1199 13 11.1214 13 12.1199C13 13.1201 12 13.1201 12 13.1201C12 13.1201 12 13.1201 12 13.1201L3.5 13.1201C2.8802 13.1201 2 14.0004 2 14.6201L2 20.8765C2 21.7106 2.87794 22.2531 3.62412 21.8801L21.3796 13.0036C22.2068 12.5901 22.2068 11.4099 21.3796 10.9964Z" stroke="none"/>
    </symbol>

    <!-- SITES -->
    <symbol
        id="sites"
        viewBox="0 0 24 24"
        xmlns="http://www.w3.org/2000/svg"
        >
        <path
          d="M10.5 6.5V9.5C10.5 10.0523 10.0523 10.5 9.5 10.5H3.5C2.94772 10.5 2.5 10.0523 2.5 9.5V3.5C2.5 2.94772 2.94772 2.5 3.5 2.5H9.5C10.0523 2.5 10.5 2.94772 10.5 3.5V4.5"
          stroke="#F83A08"
          fill="none"
          stroke-linecap="round"
          stroke-linejoin="round"
        />
        <path
          d="M17.5 10.5H20.5C21.0523 10.5 21.5 10.0523 21.5 9.5V3.5C21.5 2.94772 21.0523 2.5 20.5 2.5H14.5C13.9477 2.5 13.5 2.94772 13.5 3.5V9.5C13.5 10.0523 13.9477 10.5 14.5 10.5H15.5"
          stroke="#F83A08"
          fill="none"
          stroke-linecap="round"
          stroke-linejoin="round"
        />
        <path
          d="M13.5 17.5V14.5C13.5 13.9477 13.9477 13.5 14.5 13.5H20.5C21.0523 13.5 21.5 13.9477 21.5 14.5V20.5C21.5 21.0523 21.0523 21.5 20.5 21.5H14.5C13.9477 21.5 13.5 21.0523 13.5 20.5V19.5"
          stroke="#F83A08"
          fill="none"
          stroke-linecap="round"
          stroke-linejoin="round"
        />
        <path
          d="M6.5 13.5H9.5C10.0523 13.5 10.5 13.9477 10.5 14.5V20.5C10.5 21.0523 10.0523 21.5 9.5 21.5H3.5C2.94772 21.5 2.5 21.0523 2.5 20.5V14.5C2.5 13.9477 2.94772 13.5 3.5 13.5H4.5"
          stroke="#F83A08"
          fill="none"
          stroke-linecap="round"
          stroke-linejoin="round"
        />
    </symbol>
    <!-- SLIDER -->
    <symbol id="slider" viewBox="0 0 24 24" xmlns="http://www.w3.org/2000/svg">
        <path fill-rule="evenodd" clip-rule="evenodd" d="M16 22C17.1046 22 18 21.1046 18 20V4C18 2.89543 17.1046 2 16 2L8 2C6.89543 2 6 2.89543 6 4V20C6 21.1046 6.89543 22 8 22H16Z" stroke="none"/>
        <path fill-rule="evenodd" clip-rule="evenodd" d="M4 5C2.89543 5 2 5.89543 2 7V17C2 18.1046 2.89543 19 4 19V5Z"  stroke="none"/>
        <path fill-rule="evenodd" clip-rule="evenodd" d="M20 5V19C21.1046 19 22 18.1046 22 17V7C22 5.89543 21.1046 5 20 5Z"  stroke="none"/>
    </symbol>
    <!-- SHARE -->
    <symbol id="share" viewBox="0 0 24 24" xmlns="http://www.w3.org/2000/svg">
        <path fill-rule="evenodd" clip-rule="evenodd" d="M18.5 20.5C20.1569 20.5 21.5 19.1569 21.5 17.5C21.5 15.8431 20.1569 14.5 18.5 14.5C16.8431 14.5 15.5 15.8431 15.5 17.5C15.5 19.1569 16.8431 20.5 18.5 20.5Z" stroke="none"/>
        <path fill-rule="evenodd" clip-rule="evenodd" d="M18.5 9.5C20.1569 9.5 21.5 8.15685 21.5 6.5C21.5 4.84315 20.1569 3.5 18.5 3.5C16.8431 3.5 15.5 4.84315 15.5 6.5C15.5 8.15685 16.8431 9.5 18.5 9.5Z" strok="none"/>
        <path fill-rule="evenodd" clip-rule="evenodd" d="M5.5 15C7.15685 15 8.5 13.6569 8.5 12C8.5 10.3431 7.15685 9 5.5 9C3.84315 9 2.5 10.3431 2.5 12C2.5 13.6569 3.84315 15 5.5 15Z" stroke="none"/>
        <path d="M8 10.5L15.5 7M8 13.5L15.5 17" fill="none"/>
    </symbol>
    <!-- SOURCE -->
    <symbol id="source" viewBox="0 0 24 24" xmlns="http://www.w3.org/2000/svg">
        <path d="M5 3.5H12.5M12.5 3.5L3.5 12.5M12.5 3.5V11" fill="none" stroke-linecap="round" stroke-linejoin="round"/>
    </symbol>
    <!-- SEARCH -->
    <symbol id="search" viewBox="0 0 24 24" xmlns="http://www.w3.org/2000/svg">
        <path d="M21.5 21.5L18.3068 18.3068L16.7102 16.7102M9.88889 17.2778C8.42751 17.2778 6.99894 16.8444 5.78385 16.0325C4.56875 15.2206 3.6217 14.0666 3.06245 12.7165C2.5032 11.3664 2.35688 9.8807 2.64198 8.44739C2.92708 7.01409 3.6308 5.69751 4.66416 4.66416C5.69751 3.6308 7.01409 2.92708 8.44739 2.64198C9.8807 2.35688 11.3664 2.5032 12.7165 3.06245C14.0666 3.6217 15.2206 4.56875 16.0325 5.78385C16.8444 6.99894 17.2778 8.42751 17.2778 9.88889C17.2778 11.8485 16.4993 13.7279 15.1136 15.1136C13.7279 16.4993 11.8485 17.2778 9.88889 17.2778Z" fill="none" stroke-linecap="round" stroke-linejoin="round"/>
    </symbol>
    <!-- STATISTICS -->
    <symbol id="statistics" viewBox="0 0 24 24" fill="none" xmlns="http://www.w3.org/2000/svg">
        <path d="M7 21C7 21.5523 6.55228 22 6 22H4C3.44772 22 3 21.5523 3 21V10C3 9.44772 3.44772 9 4 9H6C6.55228 9 7 9.44772 7 10V21ZM14 21C14 21.5523 13.5523 22 13 22H11C10.4477 22 10 21.5523 10 21V3C10 2.44772 10.4477 2 11 2H13C13.5523 2 14 2.44772 14 3V21ZM21 21C21 21.5523 20.5523 22 20 22H18C17.4477 22 17 21.5523 17 21V13C17 12.4477 17.4477 12 18 12H20C20.5523 12 21 12.4477 21 13V21Z" fill="#3288EE" stroke="none"/>
    </symbol>
    <!-- VIDEO -->
    <symbol id="video" viewBox="0 0 24 24" xmlns="http://www.w3.org/2000/svg">
        <path d="M4.5 1.5L4.76275 1.0746C4.60851 0.979336 4.41478 0.97502 4.25646 1.06332C4.09813 1.15163 4 1.31871 4 1.5L4.5 1.5ZM4.5 21.5H4C4 21.6774 4.09398 21.8415 4.24697 21.9313C4.39997 22.021 4.58907 22.023 4.74391 21.9365L4.5 21.5ZM21.5 12L21.7439 12.4365C21.8986 12.35 21.996 12.1881 21.9999 12.0109C22.0038 11.8337 21.9135 11.6677 21.7627 11.5746L21.5 12ZM5 21.5V1.5H4V21.5H5ZM4.23725 1.9254L21.2373 12.4254L21.7627 11.5746L4.76275 1.0746L4.23725 1.9254ZM21.2561 11.5635L4.25609 21.0635L4.74391 21.9365L21.7439 12.4365L21.2561 11.5635Z" stroke="none"/>
    </symbol>
    <!-- VK -->
    <symbol id="vk" viewBox="0 0 24 24" xmlns="http://www.w3.org/2000/svg">
        <path fill-rule="evenodd" clip-rule="evenodd" d="M12.9808 17.7019C12.9808 17.7019 13.3418 17.6615 13.5267 17.4614C13.6959 17.278 13.69 16.9319 13.69 16.9319C13.69 16.9319 13.6675 15.316 14.4119 15.0774C15.1456 14.8428 16.0876 16.6401 17.0873 17.3312C17.8425 17.8538 18.4157 17.7394 18.4157 17.7394L21.0872 17.7019C21.0872 17.7019 22.4841 17.6152 21.8218 16.508C21.767 16.4173 21.4354 15.6887 19.8361 14.1921C18.1604 12.6254 18.3854 12.8788 20.4024 10.1685C21.6311 8.51811 22.1221 7.5105 21.9685 7.07965C21.8228 6.66754 20.9189 6.77698 20.9189 6.77698L17.9119 6.79571C17.9119 6.79571 17.6889 6.76514 17.5236 6.86472C17.3622 6.96233 17.2575 7.19007 17.2575 7.19007C17.2575 7.19007 16.7821 8.46684 16.1473 9.55332C14.8081 11.8446 14.273 11.9659 14.0539 11.8239C13.5443 11.4916 13.6714 10.4909 13.6714 9.78008C13.6714 7.55881 14.006 6.63303 13.0209 6.39345C12.6942 6.31359 12.4536 6.26134 11.6172 6.25247C10.5441 6.24162 9.63636 6.25641 9.12183 6.50979C8.77946 6.67838 8.51534 7.055 8.67675 7.07669C8.87532 7.10331 9.32529 7.19895 9.56397 7.52627C9.87211 7.94923 9.86135 8.89769 9.86135 8.89769C9.86135 8.89769 10.0384 11.5123 9.44757 11.8367C9.04259 12.0595 8.48698 11.605 7.29259 9.52571C6.68122 8.46092 6.21951 7.28374 6.21951 7.28374C6.21951 7.28374 6.13049 7.06388 5.97104 6.94557C5.77834 6.80261 5.50933 6.75824 5.50933 6.75824L2.65201 6.77698C2.65201 6.77698 2.22258 6.78881 2.06509 6.97712C1.92521 7.14374 2.05433 7.48979 2.05433 7.48979C2.05433 7.48979 4.29147 12.7654 6.82501 15.4245C9.14824 17.8617 11.7855 17.7019 11.7855 17.7019H12.9808Z" stroke="none"/>
    </symbol>
    <!-- Telegram -->
    <symbol id="tg" viewBox="0 0 24 24" xmlns="http://www.w3.org/2000/svg">
			<path fill-rule="evenodd" clip-rule="evenodd" d="M16.114 9.291c.552-.552 1.1-1.84-1.2-.276a395.806 395.806 0 0 1-6.489 4.372 2.7 2.7 0 0 1-2.117.046c-1.38-.414-2.991-.966-2.991-.966s-1.1-.691.783-1.427c0 0 7.961-3.267 10.722-4.418 1.058-.46 4.647-1.932 4.647-1.932s1.657-.645 1.519.92c-.046.644-.414 2.9-.782 5.338-.553 3.451-1.151 7.225-1.151 7.225s-.092 1.058-.874 1.242a3.787 3.787 0 0 1-2.3-.828c-.184-.138-3.451-2.209-4.648-3.221a.872.872 0 0 1 .046-1.473 169.31 169.31 0 0 0 4.835-4.602Z"/>
    </symbol>
    <!-- Whatsapp -->
    <symbol id="wa" viewBox="0 0 24 24" xmlns="http://www.w3.org/2000/svg">
			<path fill-rule="evenodd" clip-rule="evenodd" d="M259.821 7453.121c-.241.682-1.199 1.247-1.963 1.412-.523.11-1.205.199-3.503-.754-2.581-1.069-6.165-4.878-6.165-7.413 0-1.29.744-2.793 2.045-2.793.626 0 .764.012.97.507.241.582.829 2.016.899 2.163.289.603-.294.956-.717 1.482-.135.158-.288.329-.117.623.17.288.758 1.246 1.622 2.015 1.116.995 2.021 1.312 2.345 1.447.241.1.529.077.705-.111.223-.241.5-.641.782-1.035.199-.283.452-.318.717-.218.179.062 2.454 1.119 2.55 1.288.071.123.071.705-.17 1.387M254.002 7439h-.005c-5.513 0-9.997 4.485-9.997 10 0 2.187.705 4.215 1.904 5.86l-1.246 3.717 3.843-1.229a9.923 9.923 0 0 0 5.501 1.652c5.513 0 9.998-4.485 9.998-10s-4.485-10-9.998-10" transform="translate(-244 -7439)"/>
    </symbol>
    <!-- Dzen -->
    <symbol id="dz" viewBox="0 0 24 24" xmlns="http://www.w3.org/2000/svg">
    <path fill-rule="evenodd" clip-rule="evenodd" d="m7.083 14.8-4.098 9.2h-2.986l4.5-9.834c-2.114-1.074-3.525-3.018-3.525-6.614-.005-5.034 3.185-7.551 6.979-7.551h3.858v24h-2.582v-9.2h-2.146zm2.147-12.62h-1.378c-2.08 0-4.097 1.378-4.097 5.372 0 3.858 1.847 5.1 4.097 5.1h1.378z"/></svg>
    </symbol>
</svg>